# xmcd
#
# Track frame offsets:
#	150
#	12579
#	30775
#	43719
#	64388
#	79372
#	97867
#	120733
#	132633
#	146773
#	164502
#	179252
#	208907
#	231752
#
# Disc length: 3360 seconds
#
# Revision: 1
# Processed by: cddbd v1.5.2PL0 Copyright (c) Steve Scherf et al.
# Submitted via: audiograbber 1.83.01
#
DISCID=c90d1e0e
DTITLE=Fred Heyden - Back outback
DYEAR=2008
DGENRE=Country
TTITLE0=Tattooed not tailored
TTITLE1=It´s a way of life
TTITLE2=Great great snowy mountains
TTITLE3=Back outback
TTITLE4=Go goanna go
TTITLE5=Grandfather Johnson
TTITLE6=Raining on the rock
TTITLE7=What a place I´m in
TTITLE8=A million memories
TTITLE9=You and my guitar
TTITLE10=Better next year
TTITLE11=Isolated stations
TTITLE12=About this album
TTITLE13=Über dieses Album
EXTD=
EXTT0=
EXTT1=
EXTT2=
EXTT3=
EXTT4=
EXTT5=
EXTT6=
EXTT7=
EXTT8=
EXTT9=
EXTT10=
EXTT11=
EXTT12=
EXTT13=
PLAYORDER=
